<svg xmlns="http://www.w3.org/2000/svg" xmlns:xlink="http://www.w3.org/1999/xlink" id="&#x421;&#x43B;&#x43E;&#x439;_1" x="0px" y="0px" viewBox="0 0 26 26" style="enable-background:new 0 0 26 26;" xml:space="preserve">
<style type="text/css">
	.st0{fill:#FFDE00;}
</style>
<g>
	<path class="st0" d="M18.3,15.3c-0.4,0-0.6,0.2-0.7,0.3L16.1,17c0,0-0.1,0-0.2,0c-0.8,0-2.6-0.9-4.3-2.6C9.2,12.1,8.7,10.2,9,9.9   l1.5-1.5c1-1-0.8-3-1.9-4.1C8.1,3.8,6.3,2.1,5.2,2.1c-0.4,0-0.6,0.2-0.7,0.3l-3,3C0.6,6.3,0.9,8,2.4,10.5c1.3,2.2,3.4,4.7,5.8,7.2   c3.6,3.6,8.4,7.3,11,7.3h0c0.7,0,1.1-0.3,1.3-0.5l3-3c1-1-0.8-3-1.9-4.1C21.2,16.9,19.4,15.3,18.3,15.3z M19.5,23.4   c0,0-0.1,0.1-0.3,0.1c-1.5,0-5.5-2.4-9.9-6.8C7,14.3,5,11.8,3.7,9.8C2.3,7.5,2.4,6.6,2.6,6.5l2.8-2.8c0.4,0.2,1.2,0.7,2.2,1.7   c1,1,1.5,1.8,1.7,2.2L7.9,8.9c-1.4,1.4,0.4,4.4,2.6,6.6c1.9,1.9,4,3.1,5.3,3.1c0.7,0,1.1-0.3,1.3-0.5l1.3-1.3   c0.4,0.2,1.2,0.7,2.2,1.7c1,1,1.5,1.8,1.7,2.2L19.5,23.4z"></path>
	<path class="st0" d="M22.5,3.5C20.8,1.9,18.7,1,16.3,1c0,0,0,0,0,0c-0.4,0-0.8,0.3-0.8,0.8s0.3,0.8,0.8,0.8c0,0,0,0,0,0   c1.9,0,3.7,0.7,5.1,2.1c1.4,1.4,2.1,3.1,2.1,5.1c0,0.4,0.3,0.8,0.8,0.8S25,10.1,25,9.7C25,7.3,24.1,5.2,22.5,3.5z"></path>
	<path class="st0" d="M15.4,5.5C15.4,5.5,15.4,5.5,15.4,5.5C16.7,5.5,18,6,19,7c1,1,1.5,2.3,1.5,3.7c0,0.4,0.3,0.8,0.8,0.8   s0.8-0.3,0.8-0.8c0-1.8-0.7-3.5-2-4.7c-1.3-1.3-2.9-2-4.7-2c0,0,0,0,0,0c-0.4,0-0.8,0.3-0.8,0.8S14.9,5.5,15.4,5.5z"></path>
	<path class="st0" d="M14.4,8.4C14.4,8.4,14.4,8.4,14.4,8.4c0.9,0,1.7,0.3,2.3,0.9c0.6,0.6,0.9,1.4,0.9,2.3c0,0.4,0.3,0.8,0.8,0.8   s0.8-0.3,0.8-0.8c0-1.3-0.5-2.4-1.4-3.3c-0.9-0.9-2.1-1.4-3.3-1.4c0,0,0,0,0,0c-0.4,0-0.8,0.3-0.8,0.8S14,8.4,14.4,8.4z"></path>
</g>
</svg>