<svg xmlns="http://www.w3.org/2000/svg" xmlns:xlink="http://www.w3.org/1999/xlink" id="Layer_1" x="0px" y="0px" viewBox="0 0 512 512" style="enable-background:new 0 0 512 512;" xml:space="preserve">
<style type="text/css">
	.st0{fill:#FFDE00;}
</style>
<path class="st0" d="M364.4,333.6l-49.1-23.8c3-3.8,5.9-7.9,8.7-12.2c4.6-7.1,8.7-14.7,12.3-22.5c0.2,0,0.5,0,0.7,0  c0.5,0,1.1,0,1.6,0c35.9-0.4,64.6-29.9,64.1-65.7c-0.1-5.7-0.9-11.2-2.3-16.4c-10.4-81.8-74.2-145-151-145  c-76.8,0-140.6,63.2-151,145c-1.6,5.7-2.4,11.8-2.3,18c0.4,35.9,29.9,64.6,65.7,64.1c0.2,0,0.5,0,0.7,0c3.6,7.8,7.7,15.4,12.3,22.5  c2.8,4.3,5.7,8.4,8.7,12.2l-49.2,23.8c-26.8,12.9-42.2,41.5-38.4,71l4.2,32.3c1,7.5,7.3,13.1,14.9,13.1h268.6  c7.5,0,13.9-5.6,14.8-13.1l4.2-32.3C406.6,375.1,391.1,346.5,364.4,333.6z M220.7,305.4c-1.2-1.6-2.7-3-4.4-4  c-5.6-5.4-11.1-12.2-16.2-20.1c-14.1-21.9-23.3-49.8-23.3-71.2c0-14.1,4.1-27.2,11-38.4c0.7-0.8,1.2-1.7,1.7-2.6  c13.1-19.1,35-31.6,59.9-31.6c40.1,0,72.5,32.5,72.6,72.6c0,10.2-2.1,22-5.9,33.9h-42.1c-8.3,0-15,6.7-15,15c0,8.3,6.7,15,15,15  h29.1c-1.4,2.5-2.9,4.9-4.4,7.3c-4.9,7.5-10.1,14-15.4,19.3c-2.5,1.2-4.7,3.1-6.2,5.6c-9.2,7.3-18.6,11.3-27.7,11.3  C240,317.5,230.2,313.3,220.7,305.4z M347.4,243.7c3-11.6,4.6-23,4.6-33.5c0-11.8-2-23.2-5.7-33.8c11.9,3,21.3,12.2,24.8,23.8  c0.6,5.4,0.9,10.8,0.9,16.4C369.5,229.6,359.9,240,347.4,243.7z M249.4,78c45.5,0,85.2,28.1,106.3,69.8c-5.9-1.7-12.2-2.6-18.7-2.5  c-2.6,0-5.2,0.2-7.8,0.5c-18.8-23.3-47.6-38.2-79.8-38.2c-32.3,0-61,14.9-79.8,38.2c-2.6-0.3-5.2-0.5-7.8-0.5c-0.5,0-1.1,0-1.6,0  c-5.9,0.1-11.7,1-17.1,2.5C164.2,106.1,204,78,249.4,78z M126.9,216.7C126.9,216.7,126.9,216.6,126.9,216.7c0-5.6,0.3-11.1,0.9-16.5  c3.5-11.7,12.9-20.8,24.8-23.8c-3.7,10.6-5.7,22-5.7,33.8c0,10.5,1.6,21.9,4.6,33.5C138.9,240,129.3,229.6,126.9,216.7z M373,400.7  l-2.5,19.2H128.3l-2.5-19.2c-2.2-16.7,6.6-32.8,21.7-40.1l58.8-28.4c13.6,10,28.3,15.3,43.2,15.3c14.9,0,29.6-5.3,43.2-15.3  l58.8,28.4C366.5,367.9,375.2,384.1,373,400.7z"></path>
</svg>