<svg xmlns="http://www.w3.org/2000/svg" xmlns:xlink="http://www.w3.org/1999/xlink" id="Layer_1" x="0px" y="0px" viewBox="0 0 512 512" style="enable-background:new 0 0 512 512;" xml:space="preserve">
<style type="text/css">
	.st0{fill:#253993;}
</style>
<g>
	<path class="st0" d="M337.4,256c0-65.3-52.9-118.2-118.2-118.2C154,137.8,101,190.7,101,256c0,65.3,52.9,118.2,118.2,118.2   C284.5,374.1,337.3,321.3,337.4,256z M132.1,256c0-48.1,39-87.2,87.2-87.2c48.1,0,87.1,39,87.2,87.2c0,48.1-39,87.2-87.2,87.2   C171.1,343.2,132.1,304.2,132.1,256z"></path>
	<path class="st0" d="M425.7,363.4c15.3-18.9,26.6-41.1,32.8-65.3c0.2-0.6,0.3-1.2,0.5-1.9c3.1-12.9,4.8-26.3,4.8-40.2   c0-34.4-10.2-66.4-27.7-93.2c-0.4-0.8-0.9-1.5-1.5-2.2C403.9,115,351.8,85,292.8,85h-73.6c-94.3,0-171,76.7-171,171   s76.7,171,171,171h73.6c52.4,0,99.3-23.7,130.7-60.9C424.3,365.3,425.1,364.4,425.7,363.4z M368.4,339.4   c5.4-9.7,9.9-19.9,13.4-30.6h40.5c-4.5,11-10.3,21.2-17.3,30.6H368.4z M390,247.3h42.5c0.2,2.9,0.3,5.8,0.3,8.7   c0,7.4-0.6,14.7-1.7,21.8h-42.2c0.9-7.1,1.4-14.4,1.4-21.8C390.2,253.1,390.2,250.2,390,247.3z M413.7,185.6   c5.6,9.6,10.1,19.8,13.3,30.7h-41.4c-2.5-10.6-6.1-20.9-10.5-30.7H413.7z M389.2,154.6h-32.4c-10-13.5-22-25.6-35.5-35.7   C347.3,124.4,370.7,137,389.2,154.6z M79.2,256c0-77.2,62.8-140,140-140v0c69.4,0,127.3,50.8,138.2,117.3c0.1,0.6,0.2,1.3,0.3,1.9   c1,6.8,1.6,13.8,1.6,20.9c0,77.2-62.8,140-140,140S79.2,333.2,79.2,256z M346.2,370.5h27.1c-15.3,10.8-32.9,18.6-51.9,22.6   C330.4,386.3,338.7,378.8,346.2,370.5z"></path>
	<path class="st0" d="M235.2,304.9v-93.5c0-4.5-2-8.8-5.4-11.8c-6.5-5.6-16.3-4.8-21.9,1.7l-31.7,37c-5.6,6.5-4.8,16.3,1.7,21.9   c6.5,5.6,16.3,4.8,21.9-1.7l4.4-5.2v51.6c0,8.6,6.9,15.5,15.5,15.5C228.3,320.4,235.2,313.5,235.2,304.9z"></path>
</g>
</svg>