<svg xmlns="http://www.w3.org/2000/svg" xmlns:xlink="http://www.w3.org/1999/xlink" id="Layer_1" x="0px" y="0px" viewBox="0 0 512 512" style="enable-background:new 0 0 512 512;" xml:space="preserve">
<style type="text/css">
	.st0{fill:#FFDE00;}
</style>
<path class="st0" d="M441.1,138h-93V85.1c0-20.5-16.7-37.1-37.1-37.1H199.3c-20.5,0-37.1,16.7-37.1,37.1V138h-93  c-8.3,0-15,6.7-15,15v254c0,8.3,6.7,15,15,15h38v13c0,8.3,6.7,15,15,15s15-6.7,15-15v-13h236v13c0,8.3,6.7,15,15,15s15-6.7,15-15  v-13h38c8.3,0,15-6.7,15-15V153C456.1,144.7,449.4,138,441.1,138z M199.3,78H311c3.9,0,7.1,3.2,7.1,7.1V90h-126v-4.9  C192.1,81.2,195.3,78,199.3,78z M192.1,120h126v18h-126V120z M426.1,392h-342V168h93h156h93V392z"></path>
</svg>